<?xml version="1.0" encoding="UTF-8"?>
<svg version="1.1" viewBox="0 0 1368 1600" width="1280" height="1280" xmlns="http://www.w3.org/2000/svg">
<path transform="translate(770 308)" d="m0 0c4.96 1.02 9.98 1.7 15 2.43 4.46 0.674 8.5 1.65 12.8 3.14 2.24 0.469 4.49 0.904 6.75 1.31 13.4 2.55 26.4 6.53 39.2 11 2.21 0.763 4.42 1.51 6.64 2.26 9.16 3.12 18.2 6.48 27.1 10.1 0.904 0.368 1.81 0.737 2.74 1.12 5.29 2.19 10.4 4.58 15.5 7.2 1.16 0.567 2.32 1.13 3.51 1.72 18.9 9.28 37 19.5 54.5 31.3 0.74 0.494 1.48 0.988 2.24 1.5 7.56 5.05 14.9 10.2 21.9 16.1 2.2 1.85 4.42 3.67 6.67 5.46 0.677 0.543 1.35 1.09 2.05 1.65 1.3 1.04 2.6 2.08 3.9 3.11 11.4 9.18 21.8 19.6 32.1 29.9 1.88 1.88 3.77 3.75 5.66 5.62 6.96 6.93 13.4 14 19.5 21.7 1.04 1.25 2.09 2.5 3.14 3.74 0.674 0.793 0.674 0.793 1.36 1.6 0.431 0.505 0.862 1.01 1.31 1.53 8.6 10.1 8.6 10.1 12 15.3 2.11 3.21 4.27 6.37 6.5 9.5 6.18 8.8 11.9 17.9 17.4 27.1 0.529 0.878 0.529 0.878 1.07 1.77 5.44 9.12 10.4 18.5 15.3 27.9 2.72 5.22 2.72 5.22 5.65 10.3 1.3 2.17 2.24 4.28 3.16 6.64l1.02 2.62c0.365 0.951 0.73 1.9 1.11 2.88 0.625 1.61 0.625 1.61 1.26 3.26 1.25 3.24 2.5 6.49 3.74 9.74 0.4 1.05 0.4 1.05 0.809 2.11 0.742 1.96 1.47 3.92 2.19 5.89 0.334 0.897 0.668 1.79 1.01 2.72 2.9 7.95 5.57 16 8.18 24 0.345 1.05 0.69 2.11 1.05 3.19 1.79 5.57 3.3 11 4.27 16.8 0.452 2.32 0.452 2.32 1.49 4.72 1.01 2.53 1.55 4.83 2.01 7.51 0.165 0.936 0.33 1.87 0.5 2.84 0.165 0.967 0.33 1.93 0.5 2.93 1.32 7.73 1.32 7.73 2.96 15.4 6.06 26.9 6.51 54.4 6.41 81.9-0.00211 0.765-0.00422 1.53-0.0064 2.32-0.0155 5.12-0.0486 10.2-0.0952 15.4-0.00515 0.676-0.0103 1.35-0.0156 2.05-0.0161 1.88-0.0403 3.77-0.065 5.65-0.0129 1.06-0.0257 2.13-0.039 3.23-0.154 2.39-0.154 2.39-1.15 3.39-0.169 1.33-0.277 2.67-0.359 4-1.57 22.4-4.3 45.4-10.6 67-0.209 0.889-0.418 1.78-0.633 2.7-1.61 6.17-5.02 9.86-10.4 13.3-5.47 1.89-11.8 1.75-17.2-0.0625-5.81-4.01-10.2-7.85-11.8-14.9-0.0196-3.06 0.309-6.03 0.688-9.06 0.0974-0.845 0.195-1.69 0.295-2.56 0.708-5.78 1.81-11.4 3.23-17 7.27-30.9 19.3-91.4 4.79-120-0.186-1.54-0.321-3.08-0.43-4.63-0.0715-0.945-0.143-1.89-0.217-2.86-0.0754-1.01-0.151-2.03-0.229-3.07-0.894-11.1-2.05-22.2-5.12-32.9-1.4-4.9-2.28-9.88-3.22-14.9-0.719-3.33-1.67-6.4-2.78-9.62-0.837-2.76-1.63-5.54-2.44-8.31-3.27-11.2-7.19-21.9-11.6-32.7-0.71-1.77-1.42-3.54-2.12-5.31-0.317-0.788-0.634-1.58-0.961-2.39-0.603-1.52-1.19-3.04-1.77-4.57-2.88-7.54-6.53-14.7-10.2-21.8-0.828-1.64-1.63-3.3-2.42-4.96-4.5-9.39-10-18.1-15.5-26.9-0.597-0.967-1.19-1.93-1.81-2.93-16.8-27-36.5-51.8-59.2-74.1-1.17-1.18-1.17-1.18-2.36-2.38-9.47-9.42-19.3-18.2-29.9-26.3-1.77-1.35-3.52-2.71-5.28-4.07-5.05-3.92-10.1-7.73-15.4-11.2-1.42-0.955-1.42-0.955-2.86-1.93-6.27-4.22-12.6-8.25-19.1-12.1-0.923-0.554-1.85-1.11-2.8-1.68-7.56-4.5-15.3-8.47-23.2-12.3v-2c-1.73-0.526-1.73-0.526-3.5-1.06-6.72-2.23-13.1-5.21-19.6-8.09-13.2-5.84-26.7-11.2-40.6-15.1-2.29-0.711-2.29-0.711-4.7-1.71-2.86-1.11-5.66-1.78-8.65-2.44-4.33-0.969-8.64-1.97-12.9-3.06-0.99-0.248-1.98-0.495-3-0.75-1.98-0.495-3.96-0.995-5.94-1.5-7.73-1.89-15.5-3.14-23.3-4.25-0.826-0.117-1.65-0.233-2.5-0.354-0.739-0.101-1.48-0.203-2.24-0.307-1.97-0.341-1.97-0.341-4.97-1.34-3.07-0.454-6.16-0.711-9.25-1-0.927-0.0869-1.85-0.174-2.81-0.263-16.9-1.51-33.9-2.08-50.9-1.74-0.908 0.0179-1.82 0.0358-2.75 0.0542-26.6 0.616-54.1 3.3-79.8 10.3-2.54 0.669-5.07 1.17-7.64 1.65-4.01 0.769-7.74 1.92-11.6 3.28-2.92 0.945-5.87 1.54-8.89 2.09-2.6 0.696-4.98 1.73-7.44 2.82-3.24 1.38-6.57 2.48-9.9 3.62-16.1 5.61-31.5 12.3-46.7 20-1.58 0.798-3.17 1.58-4.77 2.34-5.58 2.69-10.7 5.76-15.9 9.18-2.8 1.75-5.68 3.18-8.64 4.65-8.1 4.7-15.8 9.86-23.4 15.3-2.58 1.69-2.58 1.69-4.58 1.69v2c-1.33 0.908-2.66 1.81-4.02 2.66-4.2 2.83-8.05 6.15-12 9.34-2.53 2.03-5.07 4.06-7.61 6.08-6.41 5.15-12.3 10.6-17.9 16.5-1.12 1.16-2.29 2.28-3.47 3.39h-2c-0.33 0.99-0.66 1.98-1 3-1.52 1.46-1.52 1.46-3.38 2.94-2.64 2.17-4.6 4.3-6.62 7.06h-2c-0.269 0.589-0.539 1.18-0.816 1.79-1.19 2.22-2.43 3.8-4.12 5.65-6.91 7.73-13.8 15.6-19.9 23.9-1 1.36-2.06 2.68-3.12 3.99-6.22 7.92-11.6 16.4-17 24.9-0.99 1.55-1.99 3.1-2.99 4.64-4.01 6.2-7.63 12.5-11.1 19-0.795 1.49-1.59 2.97-2.39 4.46-4.83 9.06-9.44 18.1-13.6 27.5-0.343 0.736-0.686 1.47-1.04 2.23-5.21 11.3-9.18 23.1-12.8 35-0.837 2.72-1.71 5.4-2.63 8.09-1.77 5.26-3.16 10.6-4.54 16-0.394 1.53-0.394 1.53-0.796 3.1-0.514 2.01-1.03 4.01-1.53 6.02-0.532 2.1-1.07 4.19-1.62 6.28-1.92 7.74-3.02 15.6-4.05 23.5-0.116 0.877-0.233 1.75-0.353 2.66-0.101 0.792-0.203 1.58-0.307 2.4-0.341 1.83-0.341 1.83-1.34 2.83-0.29 2.13-0.517 4.26-0.719 6.39-0.0939 0.983-0.0939 0.983-0.19 1.99-0.203 2.14-0.398 4.29-0.592 6.43-0.0669 0.727-0.134 1.45-0.203 2.2-1.91 20.8-2.82 41.2-1.42 62 0.0667 1.01 0.0667 1.01 0.135 2.04 0.559 8.44 1.18 16.9 2.05 25.3 0.0791 0.777 0.158 1.55 0.24 2.36 0.122 3.43 0.122 3.43 1.7 6.27 0.322 1.81 0.589 3.62 0.832 5.44 0.157 1.13 0.313 2.27 0.474 3.43 0.167 1.22 0.334 2.43 0.506 3.69 1.48 10.4 3.32 20.3 6.19 30.4 0.409 1.5 0.817 3 1.22 4.51 3.16 11.6 6.45 23.2 10.8 34.5 0.29 0.755 0.579 1.51 0.877 2.29 3.78 9.77 7.73 19.3 12.5 28.6 3.15 6.14 5.96 12.4 8.47 18.9 1.91 4.87 4.12 9.58 6.35 14.3 2.17 4.62 4.25 9.27 6.28 14 6.47 14.9 13.2 29.3 22.3 42.7 3.73 5.52 7.24 11.1 10.7 16.8 4.41 7.17 8.88 14.3 13.5 21.4 1.89 2.93 3.75 5.87 5.61 8.82 2.14 3.38 4.36 6.68 6.69 9.94 4.46 6.3 8.47 12.9 12.5 19.4 4.67 7.54 9.52 14.9 14.5 22.3 2.51 3.76 4.98 7.54 7.39 11.4 2.16 3.43 4.4 6.76 6.75 10.1 3.36 4.74 6.37 9.66 9.39 14.6 2.72 4.43 5.63 8.73 8.53 13 2.43 3.62 4.82 7.26 7.14 10.9 2.7 4.28 5.49 8.49 8.31 12.7 4.01 5.97 7.85 12 11.6 18.2 2.9 4.67 5.95 9.19 9.18 13.6 1.38 2.02 1.38 2.02 2.44 4.16 0.904 2.03 0.904 2.03 2.94 3.86 0.775 1.17 1.52 2.36 2.25 3.56 1.76 2.86 3.56 5.66 5.44 8.44 5.23 7.79 10.2 15.8 15 23.9 1.28 2.24 1.28 2.24 3.32 4.14 1.05 1.57 2.06 3.15 3.06 4.75 2.86 4.53 5.73 9.06 8.62 13.6 0.368 0.574 0.736 1.15 1.12 1.74 1.7 2.65 3.42 5.28 5.17 7.9 2.31 3.48 4.51 7.01 6.71 10.6 6.64 10.7 13.4 21.2 20.4 31.7 3.81 5.69 7.53 11.4 11.2 17.2 2.12 3.3 4.29 6.5 6.67 9.63 1.06 1.62 2.1 3.24 3.12 4.88 2.77 4.39 5.56 8.76 8.38 13.1 2.74 4.26 5.47 8.53 8.19 12.8 2.54 4 5.14 7.95 7.79 11.9 1.69 2.56 3.33 5.15 4.96 7.75 2.8 4.43 5.73 8.73 8.79 13 1.88 2.74 3.64 5.54 5.39 8.37 2.49 3.98 5.07 7.9 7.63 11.8 20.2 31 20.2 31 24.3 38.1 1.36 2.4 1.36 2.4 3.43 4.32 0.86 1.38 1.69 2.78 2.5 4.19 4.21 7.13 8.87 13.9 13.5 20.8 0.66 0.99 1.32 1.98 2 3 2.43 0.652 2.43 0.652 5 0 1.96-1.99 1.96-1.99 3.56-4.81 0.682-1.09 1.36-2.18 2.07-3.3 0.374-0.614 0.748-1.23 1.13-1.86 1.86-3.04 3.77-6.05 5.68-9.06 1.05-1.66 2.09-3.31 3.14-4.97 3.38-5.36 6.83-10.7 10.4-15.9 6.46-9.68 12.7-19.5 19-29.3 2.08-3.23 4.18-6.44 6.32-9.63 4.18-6.23 8.07-12.6 11.8-19.1h2c0.309-0.949 0.619-1.9 0.938-2.88 1.06-3.12 1.06-3.12 2.06-5.12h2c0.404-1.09 0.404-1.09 0.816-2.2 1.16-2.75 2.49-5.05 4.12-7.55 0.617-0.954 1.23-1.91 1.87-2.89 0.345-0.529 0.691-1.06 1.05-1.6 1.74-2.68 3.48-5.36 5.21-8.04 0.961-1.49 1.92-2.97 2.88-4.46 2.53-3.91 5.05-7.83 7.55-11.8 3.04-4.79 6.11-9.55 9.19-14.3 0.464-0.718 0.928-1.44 1.41-2.18 2-3.08 4-6.16 6.04-9.21 1.7-2.56 3.35-5.13 4.99-7.73 3.35-5.29 6.81-10.5 10.3-15.7 1.97-2.93 3.85-5.87 5.58-8.95 1.95-3.4 4.08-6.56 6.35-9.75 3.29-4.68 6.34-9.43 9.23-14.4 3.92-6.57 8.39-12.8 12.9-19 1.53-2.38 2.55-4.7 3.52-7.36h2c0.394-1.08 0.394-1.08 0.797-2.18 1.24-2.91 2.72-5.37 4.45-8.01 2.88-4.44 5.63-8.94 8.29-13.5 1.65-2.59 3.54-4.9 5.46-7.29 1.11-1.65 2.19-3.32 3.25-5 0.905-1.44 0.905-1.44 1.83-2.9 1.99-3.21 3.96-6.43 5.92-9.66 3.46-5.64 7.09-11.1 11-16.4 0.406-0.597 0.812-1.19 1.23-1.81 3.75-5.13 8.91-7.55 15.1-8.57 5.55-0.288 10.4 0.736 14.7 4.38 4.36 5.62 6.94 11.3 6.46 18.5-1.29 6.95-4.06 12-8.46 17.5-1.3 2.04-2.57 4.11-3.81 6.19-2.53 4.19-5.15 8.27-8 12.2-2.44 3.42-4.47 6.73-6.19 10.6h-2c-0.267 0.723-0.534 1.45-0.809 2.19-1.19 2.82-2.59 5.19-4.25 7.75-0.623 0.962-1.25 1.92-1.89 2.91-0.677 1.04-1.35 2.08-2.05 3.15-1.08 1.69-2.17 3.37-3.25 5.06-2.65 4.13-5.31 8.26-7.97 12.4-4.87 7.55-9.67 15.1-14.4 22.8-0.383 0.612-0.767 1.22-1.16 1.85-0.859 1.39-1.7 2.79-2.54 4.19-0.66 1.1-0.66 1.1-1.33 2.22-0.398 0.674-0.796 1.35-1.21 2.04-0.37 0.489-0.741 0.978-1.12 1.48h-2c-0.275 0.728-0.549 1.46-0.832 2.21-3.07 7.35-7.85 13.8-12.4 20.3-2.25 3.27-4.25 6.65-6.26 10.1-1.86 3.1-3.86 6.1-5.88 9.1-4.58 6.77-9.05 13.6-13.4 20.5-6.97 11.1-14 22.1-21.3 32.9-2.43 3.66-4.77 7.37-7.11 11.1-1.91 2.98-3.87 5.91-5.85 8.85-2.37 3.53-4.66 7.08-6.81 10.8-2.94 4.99-6.15 9.78-9.38 14.6-3.06 4.56-6.04 9.15-8.97 13.8-2.46 3.89-4.95 7.75-7.44 11.6-2.27 3.53-4.53 7.07-6.77 10.6-2.75 4.33-5.58 8.61-8.44 12.9-3.41 5.1-6.8 10.2-10.1 15.4-0.561 0.864-0.561 0.864-1.13 1.75-1.79 2.79-3.46 5.56-4.87 8.57h-2c-0.25 0.879-0.5 1.76-0.758 2.66-1.29 3.48-2.85 5.79-5.12 8.71-3.31 4.39-5.86 8.62-8.12 13.6h-2c-0.241 0.683-0.482 1.37-0.73 2.07-1.52 3.51-3.49 6.62-5.58 9.8-0.401 0.617-0.802 1.23-1.21 1.87-2.72 4.16-5.52 8.25-8.47 12.3-4.26-1.34-6.01-2.84-8.45-6.55-0.922-1.38-0.922-1.38-1.86-2.79-0.638-0.982-1.28-1.96-1.93-2.98-1.34-2.02-2.69-4.04-4.03-6.06-0.965-1.46-0.965-1.46-1.95-2.96-2.12-3.2-4.31-6.34-6.52-9.48-3.68-5.3-7.19-10.7-10.7-16.1-4.12-6.4-8.34-12.7-12.6-19.1-5.13-7.67-10.2-15.4-15.2-23.1-2.86-4.45-5.78-8.86-8.74-13.2-4.33-6.44-8.47-13-12.6-19.6-3.54-5.63-7.18-11.2-10.9-16.7-3.88-5.78-7.64-11.6-11.4-17.5-2.14-3.33-4.29-6.65-6.44-9.97-0.456-0.705-0.912-1.41-1.38-2.14-4.17-6.44-8.35-12.9-12.5-19.3-2.54-3.91-5.09-7.83-7.61-11.7-5.02-7.8-10.1-15.5-15.3-23.3-4.64-6.92-9.15-13.9-13.5-21-2.99-4.83-6.1-9.56-9.27-14.3-2.58-3.87-5.11-7.78-7.63-11.7-3.09-4.79-6.2-9.57-9.38-14.3-7.61-11.4-15-22.8-22.3-34.4-3.71-5.83-7.48-11.6-11.2-17.4-1.05-1.62-2.1-3.23-3.14-4.85-5.85-9.04-11.7-18.1-17.7-27-6.8-10.2-13.4-20.5-19.9-30.8-5.58-8.78-11.2-17.5-17-26.1-2.32-3.46-4.59-6.95-6.82-10.5-4.95-7.81-10.1-15.5-15.1-23.2-8.79-13.3-17.6-26.7-26.1-40.2-3.17-5-6.4-9.97-9.62-14.9-0.551-0.847-1.1-1.69-1.67-2.57-3.06-4.71-6.14-9.41-9.23-14.1-9.62-14.6-18.4-29.3-26.1-45-1.66-3.37-3.33-6.74-5-10.1l-0.991-1.99c-2.33-4.66-4.77-9.24-7.26-13.8-2.57-4.74-4.8-9.48-6.69-14.5-2.32-5.69-5.26-11.1-8.06-16.6-5.02-9.84-9.62-19.9-13.8-30.1-0.759-1.84-1.54-3.67-2.34-5.49-4.36-9.96-7.57-20.3-10.9-30.6-1.76-5.36-3.53-10.7-5.41-16-1.94-5.81-3.18-11.8-4.5-17.8-0.518-2.27-1.04-4.54-1.56-6.81l-0.691-3.02c-0.542-2.3-1.13-4.59-1.74-6.88-1.26-5-1.9-10.1-2.57-15.2-0.248-1.87-0.499-3.75-0.754-5.62-0.108-0.818-0.215-1.64-0.326-2.48-0.268-2.09-0.268-2.09-1.36-4.03-6.36-40-9.56-91.9 2-131 0.76-4.67 1.29-9.38 1.86-14.1 0.18-1.42 0.18-1.42 0.363-2.86 0.154-1.28 0.154-1.28 0.311-2.58 0.51-2.68 1.42-4.96 2.47-7.48 0.522-2.37 0.997-4.74 1.44-7.12 2.79-14.6 2.79-14.6 5.5-21.1 1.75-4.52 2.88-9.21 4.12-13.9 1.2-4.42 2.56-8.7 4.21-13 1.13-2.92 2.14-5.88 3.17-8.83 3.31-9.25 7.43-17.9 11.9-26.6 1.69-3.43 3.18-6.91 4.68-10.4 4.82-10.2 10.2-20 15.8-29.8 0.85-1.52 1.69-3.04 2.53-4.57 2.15-3.92 4.3-7.7 6.95-11.3 2.43-3.39 4.73-6.82 6.94-10.3 6.61-10.5 14.3-20.1 22.1-29.7 1.59-2.02 3.09-4.06 4.56-6.16 1.68-2.35 3.16-4.07 5.19-6.06 1.09-1.24 2.17-2.49 3.25-3.75 2.87-3.31 5.88-6.4 9-9.47 1.82-1.86 3.5-3.8 5.18-5.78 2.99-3.48 6.23-6.45 9.72-9.42 2.41-2.07 4.62-4.31 6.84-6.58 3.93-4.02 7.9-7.87 12.2-11.5 1.82-1.53 3.58-3.11 5.35-4.7 27.2-23.8 27.2-23.8 33.4-23.8v-2c2.37-1.63 4.73-3.14 7.19-4.62 0.723-0.443 1.45-0.886 2.19-1.34 1.49-0.91 2.98-1.82 4.47-2.72 1.96-1.19 3.92-2.4 5.87-3.61 16.2-10.1 16.2-10.1 20.3-10.7v-2c2.79-1.34 5.58-2.67 8.38-4 0.794-0.382 1.59-0.763 2.41-1.16 0.761-0.361 1.52-0.722 2.3-1.09 0.702-0.335 1.4-0.67 2.13-1.02 1.79-0.734 1.79-0.734 3.79-0.734v-2c1.75-0.729 3.5-1.46 5.25-2.19 1.09-0.455 2.18-0.91 3.31-1.38 2.22-0.925 4.44-1.85 6.66-2.77 6.37-2.65 6.37-2.65 12.7-5.35 2.67-1.15 5.36-2.23 8.06-3.31 1.61-0.712 1.61-0.712 3.25-1.44 5.44-2.33 11.1-4.04 16.7-5.79 0.706-0.219 1.41-0.439 2.14-0.665 1.41-0.437 2.82-0.872 4.23-1.3 2.78-0.858 5.52-1.74 8.21-2.84 3.14-1.23 6.31-2.03 9.59-2.84 0.681-0.169 1.36-0.339 2.06-0.513 6.56-1.6 13.2-2.98 19.8-4.3 3.83-0.479 3.83-0.479 7.03-2.31 1.9-0.357 3.8-0.659 5.71-0.938 1.16-0.173 2.32-0.345 3.52-0.523 1.22-0.178 2.45-0.356 3.71-0.539 2.41-0.351 4.81-0.705 7.21-1.06 1.07-0.156 2.14-0.312 3.25-0.473 2.57-0.334 2.57-0.334 4.6-1.46 1.55-0.21 3.11-0.368 4.67-0.5 0.962-0.082 1.92-0.164 2.92-0.249 1.57-0.124 1.57-0.124 3.16-0.251 1.08-0.0869 2.17-0.174 3.28-0.263 36.9-2.87 77.8-5.6 114 2.7zm-514 386 1 3zm855 17 1 3zm-855 105 1 2z" fill="#FBFCFE"/>
<path transform="translate(702 472)" d="m0 0c0.934 0.00116 1.87 0.00232 2.83 0.00351 20.1 0.0491 39.8 1.09 59.4 6.31 1.42 0.357 2.83 0.712 4.25 1.06 1.93 0.483 3.86 0.966 5.8 1.45 3.07 0.772 6.14 1.53 9.22 2.23 7.29 1.69 13.9 4.23 20.7 7.25 1.83 0.783 3.65 1.56 5.48 2.34 2.84 1.21 5.68 2.43 8.52 3.66 1.18 0.503 2.37 1.01 3.59 1.52 17.2 7.46 33.4 17.2 48.4 28.5 0.781 0.58 1.56 1.16 2.37 1.76 6.57 4.98 12.8 10.4 19 15.8 1.43 1.24 2.87 2.48 4.32 3.72 4.01 3.48 7.62 7.02 11 11.1 1.45 1.78 1.45 1.78 3.76 4.02 5.9 5.9 11.1 12.4 16.1 19 0.569 0.747 1.14 1.49 1.72 2.26 3.77 4.98 7.38 10 10.7 15.3l1.59 2.42c7.59 11.7 15.2 24.1 20.4 37.1 0.988 2.46 2.11 4.82 3.26 7.21 3.29 7.19 5.67 14.7 8.07 22.2 0.592 1.85 1.2 3.7 1.81 5.54 12.2 37.7 15.9 80.9 9.46 120-0.432 2.65-0.834 5.3-1.21 7.96-1.99 13.8-4.81 27.5-9.38 40.7-0.555 1.67-1.11 3.35-1.66 5.02-3.45 10.2-6.97 20.2-12.1 29.8-1.93 3.56-1.93 3.56-1.68 7.44 0.468 0.59 0.936 1.18 1.42 1.79 0.512 0.648 1.02 1.3 1.55 1.96 5.94 6.82 5.94 6.82 12.8 12.7 0.557 0.433 1.11 0.866 1.69 1.31v2c0.552 0.222 1.1 0.443 1.67 0.672 3.07 1.75 5.14 4.02 7.58 6.58 7.64 8.56 7.64 8.56 17.9 12.3 3.92-0.578 5.5-1.56 8.81-3.56 1.94-0.742 3.9-1.43 5.88-2.06 1.05-0.338 2.1-0.675 3.19-1.02l2.94-0.914c0.701-0.219 1.4-0.438 2.12-0.664 11-3.29 21.7-2.93 32.9-0.336 0.66 0.66 1.32 1.32 2 2 1.8 0.448 3.62 0.835 5.44 1.19 11 2.67 18.6 9.48 26.6 17.1 3.44 3.18 7.05 6.04 10.8 8.86 2.41 2.07 4.18 4.38 6.16 6.85 1.86 1.52 1.86 1.52 3.75 2.69 1.61 1.14 1.61 1.14 3.25 2.31v2c0.594 0.27 1.19 0.54 1.8 0.818 2.18 1.17 3.62 2.35 5.38 4.09 0.593 0.574 1.19 1.15 1.8 1.74 0.627 0.611 1.25 1.22 1.9 1.85 5.54 5.3 11.2 10 17.6 14.3 3.21 2.17 5.86 4.44 8.57 7.2 2.19 1.83 4.44 3.57 6.69 5.31 0.626 0.489 1.25 0.979 1.9 1.48 2.61 2.04 5.23 4.06 7.88 6.06 11.3 8.52 21.2 18.7 31.1 28.7 3.46 3.5 6.94 6.89 10.7 10.1 3.2 2.75 5.93 5.63 8.57 8.93 0.728 0.9 1.46 1.8 2.21 2.73 5 6.69 5.97 11.3 4.98 19.6-1.62 4.9-4.74 8.16-9 11-3.36 1.12-6.09 1.27-9.62 1.38-1.17 0.049-2.34 0.098-3.54 0.148-11.5-1.57-18.8-11-26.4-18.9-2.35-2.41-4.71-4.81-7.07-7.21-0.562-0.573-1.12-1.15-1.7-1.74-4.05-4.11-8.26-7.95-12.7-11.7-2.61-2.38-5.21-4.78-7.8-7.18-2.15-2.01-2.15-2.01-5.2-2.82-1.68-1.65-3.35-3.32-5-5-2.04-1.64-4.09-3.24-6.19-4.81-1.16-0.881-2.32-1.76-3.48-2.64-0.568-0.431-1.14-0.863-1.72-1.31-2.23-1.71-4.42-3.47-6.61-5.24-3.82-3.07-7.68-6.08-11.6-9.06-0.549-0.422-1.1-0.844-1.66-1.28-2.52-1.94-5.06-3.87-7.6-5.78-0.82-0.62-1.64-1.24-2.48-1.88-1.08-0.804-1.08-0.804-2.18-1.62-0.499-0.454-0.998-0.908-1.51-1.38v-2c-0.572-0.254-1.14-0.508-1.73-0.77-2.53-1.37-4.39-2.97-6.52-4.92-0.794-0.719-1.59-1.44-2.41-2.18-0.773-0.704-1.55-1.41-2.34-2.13-18.8-19-18.8-19-42.3-27.5-7.08 1.3-14 4.73-20 8.69-2.7 1.8-2.7 1.8-4.7 1.8-0.33 0.99-0.66 1.98-1 3-1.33 0.667-2.67 1.33-4 2-0.866 0.866-1.73 1.73-2.62 2.62l-2.38 2.38h-2c-0.33 0.99-0.66 1.98-1 3-1.74 1.54-3.54 3.01-5.38 4.44-3.42 2.67-6.05 5.1-8.62 8.56h-2c-0.209 0.672-0.418 1.34-0.633 2.04-1.84 3.99-4.45 7.04-7.24 10.4-4.41 5.34-8.35 10.8-12.1 16.6-2.12 3.02-4.45 5.33-7.06 7.94-2.11 2.64-4.18 5.3-6.23 7.99-0.584 0.664-1.17 1.33-1.77 2.01h-2c-0.268 0.583-0.536 1.17-0.812 1.77-1.2 2.26-2.53 4.04-4.19 5.98-0.516 0.614-1.03 1.23-1.56 1.86-1.44 1.39-1.44 1.39-3.44 1.39-0.387 0.853-0.387 0.853-0.781 1.72-1.78 3.32-4.18 6.06-6.56 8.96-2.58 3.61-3.61 6.13-3.79 10.6 1.66 5.46 5.1 8.38 9.19 12.2 0.739 0.721 1.48 1.44 2.24 2.18 4.16 4.02 8.45 7.87 12.8 11.7 2.93 2.59 5.69 5.33 8.44 8.1 0.564 0.566 1.13 1.13 1.71 1.71 2.9 2.93 5.7 5.89 8.35 9.04 5.63 6.6 12.3 12.2 19.1 17.6 5.24 4.1 10 8.63 14.8 13.2 2.98 2.84 5.95 5.45 9.33 7.81 3.14 2.23 3.5 2.99 5.11 6.2 1.68 1.19 3.36 2.37 5.07 3.52 2.79 2.14 4.92 4.72 7.16 7.42 2.14 2.49 4.44 4.76 6.77 7.06 1.34 1.35 2.69 2.71 4.03 4.07 1.49 1.5 2.98 3 4.47 4.5 0.746 0.755 1.49 1.51 2.26 2.29 3 3.02 5.93 5.91 9.27 8.55 0.65 0.527 1.3 1.05 1.97 1.6v2c0.585 0.255 1.17 0.51 1.77 0.773 2.45 1.35 3.95 2.82 5.85 4.85 3.59 3.68 7.37 6.88 11.4 10.1 2.93 2.3 5.82 4.65 8.71 7.01 5.58 4.57 11.2 9.08 16.9 13.4 6.11 4.66 12 9.59 17.8 14.6 7.23 6.16 14.6 12 22.4 17.4 5.53 3.95 9.76 8.4 12.1 14.9 1.09 7.57 0.311 12.9-4.1 19.2-4.27 4.14-8.69 5.3-14.5 5.4-12.7-0.321-21.1-7.57-30.4-15.6-1.85-1.5-3.7-3-5.56-4.5-3.54-2.89-6.95-5.85-10.3-8.94-4.13-3.76-8.43-7.18-12.9-10.5-6.6-5.01-13-10.3-19.4-15.5-1.67-1.37-3.35-2.73-5.03-4.09-7.68-6.25-15.1-12.6-22-19.6-2.14-2.11-4.45-3.93-6.81-5.78-2.8-2.66-5.36-5.41-7.81-8.38-2.03-2.4-4.11-4.48-6.52-6.48-3.91-3.38-7.55-6.96-11.2-10.6-0.588-0.594-1.18-1.19-1.78-1.8-2.45-2.48-4.9-4.96-7.34-7.45-6.75-6.87-13.5-13.4-21-19.4-2.79-2.21-5.39-4.54-7.99-6.95-3.1-2.85-6.2-5.68-9.38-8.44-6.88-6-13.6-12.1-20.1-18.6-4.99-5.04-10.1-9.75-15.6-14.3-1.28-1.08-2.56-2.16-3.84-3.24-1.29-1.09-2.59-2.17-3.89-3.25-1.56-1.32-3.07-2.7-4.57-4.09v-2c-0.878-0.346-0.878-0.346-1.77-0.699-2.79-1.63-4.04-3.45-5.85-6.11-0.886-1.28-0.886-1.28-1.79-2.58-1.52-2.5-2.54-4.88-3.59-7.61-0.486-0.972-0.972-1.94-1.47-2.95-5.18-10.4-6.94-18.9-3.53-30.1 0.439-1.48 0.439-1.48 0.887-2.98 1.42-4.52 2.76-8.73 5.36-12.7 2.25-4.26 2.13-7.6 1.75-12.3-0.793-0.329-0.793-0.329-1.6-0.664-3.28-1.83-5.97-4.25-8.77-6.71-4.05-3.54-8.1-6.7-12.6-9.62-6.66-4.66-13-9.51-19-15-6.26 2.29-12.2 5.02-18.2 8-0.997 0.498-0.997 0.498-2.01 1.01-3.16 1.6-6.25 3.25-9.29 5.06-3.68 2.13-7.51 3.52-11.5 4.94-1.44 0.546-2.87 1.1-4.3 1.65-10.8 4.09-21.5 7.51-32.7 10.4-0.719 0.187-1.44 0.374-2.18 0.566-8.59 2.22-17.1 3.92-25.9 4.84-3.24 0.0929-3.24 0.0929-5.91 1.59-9.63 1.42-19.5 1.16-29.2 1.12-0.783-0.00122-1.57-0.00244-2.37-0.00369-10.4-0.0189-20.7-0.159-31.1-0.559-1.04-0.0392-2.07-0.0783-3.14-0.119-6.98-0.313-6.98-0.313-9.24-1.44-1.51-0.264-3.02-0.485-4.54-0.684-0.909-0.123-1.82-0.246-2.76-0.373-1.91-0.251-3.81-0.501-5.72-0.75-5.17-0.702-9.98-1.66-15-3.19-1.79-0.464-3.57-0.919-5.36-1.37-1.46-0.369-1.46-0.369-2.94-0.746-1.99-0.505-3.99-1-5.98-1.5-6.48-1.66-12.6-3.79-18.7-6.39-1.78-0.686-1.78-0.686-3.59-1.39-29.9-11.6-56.9-27.9-81.4-48.6-0.6-0.505-1.2-1.01-1.82-1.53-5.47-4.69-10.6-9.7-15.7-14.8-1.42-1.42-2.84-2.82-4.27-4.23-8.97-8.95-16.8-18.6-24.3-28.8-0.602-0.819-1.2-1.64-1.82-2.48-4.75-6.52-9.06-13.2-13.1-20.1-0.641-1.06-1.28-2.11-1.94-3.2-5.87-9.89-10.5-20.2-15.1-30.8-0.297-0.688-0.594-1.38-0.899-2.08-4.18-9.76-7.3-19.7-10.1-29.9-0.275-0.999-0.275-0.999-0.555-2.02-1.18-4.32-2.33-8.65-3.45-13-0.233-0.815-0.467-1.63-0.707-2.47-2.53-9.24-3.53-18.5-4.48-28-0.0869-0.849-0.174-1.7-0.263-2.57-1.53-15.2-2.85-30.7-1.55-45.9 0.33-0.33 0.66-0.66 1-1 0.278-2.37 0.499-4.73 0.684-7.11 0.124-1.47 0.249-2.95 0.373-4.42 0.191-2.33 0.38-4.65 0.566-6.98 0.181-2.24 0.371-4.49 0.561-6.73 0.0522-0.688 0.104-1.38 0.158-2.08 0.36-4.17 1.23-7.76 2.66-11.7 0.533-2.49 1.03-4.99 1.5-7.5 0.873-4.67 1.96-9.01 3.5-13.5 0.404-1.43 0.798-2.87 1.18-4.31 0.206-0.766 0.411-1.53 0.623-2.32 0.42-1.58 0.837-3.16 1.25-4.73 1.23-4.53 2.77-8.45 4.94-12.6 1.3-3.53 2.51-7.09 3.72-10.7 1.18-3.07 2.54-5.57 4.28-8.34 0.975-1.91 1.93-3.83 2.88-5.75 2.57-5.17 5.25-10.2 8.12-15.2 0.547-0.959 1.09-1.92 1.66-2.91 3.21-5.58 6.54-11 10.2-16.4 1.21-1.74 1.21-1.74 2.16-3.74h2c0.244-0.717 0.487-1.43 0.738-2.17 1.43-3.2 3.19-5.41 5.45-8.08 3.48-4.15 6.85-8.35 10.1-12.7 2.08-2.53 4.36-4.77 6.7-7.07 1.11-1.12 2.23-2.25 3.34-3.38 1.2-1.21 2.4-2.42 3.6-3.62 0.595-0.603 1.19-1.21 1.8-1.83 3.6-3.62 7.3-6.95 11.3-10.2 0.578-0.598 1.15-1.2 1.75-1.81 1.25-1.19 1.25-1.19 3.25-1.19 0.495-1.49 0.495-1.49 1-3 1.32-0.685 2.66-1.35 4-2 0.557-0.577 1.11-1.15 1.69-1.75 3.3-3.21 8.52-8.25 13.3-8.25v-2c6.01-4.08 12.4-7.55 18.7-11.1 1.91-1.09 3.82-2.2 5.7-3.34 11.1-6.6 22.5-12 34.6-16.5 1.11-0.441 2.22-0.882 3.37-1.34 15.2-6.03 30.8-10.1 46.9-13 2.91-0.535 5.79-1.12 8.68-1.75 14.2-2.81 28.4-3.31 42.9-3.25zm-53.8 46.3c-1.36 0.327-2.72 0.653-4.08 0.977-6.83 1.65-13.4 3.49-19.9 6.02-1.31 0.48-2.62 0.956-3.93 1.43-7.61 2.78-14.9 5.75-22.1 9.57-1.52 0.743-1.52 0.743-3.06 1.5-4.04 2.06-7.99 4.27-11.9 6.5-1.14 0.636-2.27 1.27-3.45 1.93-10.4 5.59-10.4 5.59-19.4 13-2.09 2.02-4.13 3.43-6.56 5-3.65 2.37-6.56 4.9-9.56 8.06-2 1.67-4 3.33-6 5-3.42 3.25-6.48 6.7-9.52 10.3-2.04 2.35-4.28 4.5-6.48 6.7-1.34 1.66-2.67 3.33-4 5-1.33 1.33-2.67 2.67-4 4-7.27 7.77-7.27 7.77-11 17h-2l-1.54 2.71c-0.695 1.22-1.39 2.44-2.09 3.66-0.549 0.966-0.549 0.966-1.11 1.95-2.02 3.54-4.1 7.03-6.27 10.5-4.28 7.08-7.59 14.7-11 22.2-0.539 1.17-1.08 2.34-1.63 3.54-4.28 9.57-7.43 19.4-10.4 29.5-0.199 0.667-0.397 1.33-0.602 2.02-10.2 34.8-12.8 82.4-0.398 117 0.472 1.68 0.931 3.37 1.38 5.06 2.44 9.02 5.05 17.9 8.65 26.6 0.62 1.5 1.21 3.01 1.77 4.53 10.7 28.9 30.8 57.8 53.2 78.8h2c0.251 0.599 0.503 1.2 0.762 1.82 1.4 2.48 2.72 3.51 5.05 5.12 3.44 2.39 6.23 5.1 9.19 8.06 12.5 10.5 26.5 19.6 41 27 0.602 0.31 1.2 0.621 1.82 0.94 20.7 10.7 42.9 19.5 66.1 22.7 2.09 0.359 2.09 0.359 3.09 1.36 1.61 0.215 3.22 0.371 4.84 0.5 0.98 0.0825 1.96 0.165 2.97 0.25 1.03 0.0825 2.06 0.165 3.13 0.25 2.03 0.163 4.06 0.329 6.09 0.5 0.905 0.0722 1.81 0.144 2.74 0.219 2.23 0.281 2.23 0.281 4.23 1.28 2.82 0.0991 5.62 0.14 8.44 0.133 0.836 9.57e-4 1.67 0.00191 2.53 0.0029 1.77 6.81e-4 3.54-0.00117 5.31-0.00534 2.71-0.00535 5.43-5.23e-5 8.14 0.00635 1.72-6.61e-4 3.43-0.00194 5.15-0.00391 0.815 0.00202 1.63 0.00405 2.47 0.00613 4.12 0.087 4.12 0.087 7.97-1.14 1.36-0.15 2.73-0.25 4.09-0.324 21-1.38 41.3-6.05 60.9-13.7 1.07-0.41 2.14-0.82 3.24-1.24 7.07-2.76 14-5.72 20.9-8.95 0.71-0.333 1.42-0.666 2.15-1.01 9.14-4.35 17.4-10.1 25.7-15.8 0.617-0.417 1.23-0.835 1.87-1.26 7.67-5.22 14.7-10.8 21.4-17.2 3.03-2.86 6.18-5.55 9.38-8.21 1.56-1.26 1.56-1.26 1.33-3.34 0.824-0.321 0.824-0.321 1.66-0.648 3.13-1.81 5.33-4.3 7.71-6.98 0.483-0.535 0.966-1.07 1.46-1.62 6.81-6.62 6.81-6.62 10.2-14.8h2c1.62-2.16 3.1-4.3 4.56-6.56 0.443-0.677 0.887-1.35 1.34-2.05 12.1-18.6 23-37.9 29.1-59.4 0.661-1.67 1.33-3.34 2-5 4.14-13.1 6.95-26.4 8.57-40 0.43-2.98 0.43-2.98 1.43-4.98 0.0958-1.75 0.128-3.51 0.129-5.26 0.00315-1.1 0.0063-2.2 0.00955-3.33-0.00202-1.19-0.00405-2.38-0.00613-3.6 9.57e-4 -1.22 0.00191-2.43 0.0029-3.68 6.81e-4 -2.57-0.00117-5.15-0.00534-7.72-0.00535-3.95-5.14e-5 -7.91 0.00635-11.9-6.61e-4 -2.49-0.00194-4.99-0.00391-7.48 0.00304-1.79 0.00304-1.79 0.00613-3.61-0.00315-1.09-0.0063-2.19-0.00955-3.32-7.96e-4 -0.969-0.00159-1.94-0.00241-2.94 0.118-2.17 0.118-2.17-1.13-3.19-0.333-2.52-0.617-5.03-0.875-7.56-1.3-11.7-2.97-23.3-7.12-34.4-0.485-1.44-0.964-2.87-1.44-4.31-0.247-0.739-0.495-1.48-0.75-2.24-0.593-1.79-1.17-3.58-1.75-5.37-11.3-34.9-33-65.7-58.1-92.1-0.684-0.726-1.37-1.45-2.07-2.2-19.5-20.1-44.4-35.1-69.6-46.7-1.91-0.883-3.82-1.78-5.73-2.68-8.24-3.85-16.6-7.23-25.5-8.9-2.07-0.492-2.07-0.492-4.34-1.45-3.42-1.3-6.88-1.92-10.5-2.54-1.44-0.257-2.87-0.514-4.3-0.773-0.684-0.123-1.37-0.247-2.07-0.374-2.27-0.427-4.51-0.939-6.75-1.48-8.44-1.92-17-2.03-25.7-2.04-1.08-0.00333-2.16-0.00666-3.27-0.0101-2.27-0.00504-4.54-0.00741-6.81-0.00725-3.42-0.00218-6.84-0.0203-10.3-0.0393-16.9-0.0436-32.7 1.03-49.1 5.22zm-228 221 1 2zm512 183c-0.484 0.613-0.969 1.23-1.47 1.86-0.541 0.676-1.08 1.35-1.64 2.05-0.851 1.09-0.851 1.09-1.72 2.2-0.877 1.1-0.877 1.1-1.77 2.22-2.99 3.76-5.91 7.56-8.79 11.4-2.73 3.56-5.78 6.33-9.22 9.19-2.02 1.79-3.73 3.68-5.47 5.75-2.96 3.49-6.16 6.44-9.63 9.4-2.44 2.09-4.7 4.23-6.87 6.6v2c1.02 0.553 2.03 1.11 3.08 1.68 3.83 2.19 7.24 4.74 10.7 7.51 0.601 0.478 1.2 0.955 1.82 1.45 4.75 3.78 9.45 7.62 14.1 11.5 0.761 0.619 1.52 1.24 2.3 1.88 0.637 0.578 1.27 1.16 1.93 1.75 2.92 1.77 4.72 1.79 8.07 1.25 2.37-1.97 2.37-1.97 4.31-4.75 1.15-1.51 1.15-1.51 2.33-3.05 0.777-1.06 1.55-2.11 2.36-3.2 0.746-0.984 1.49-1.97 2.26-2.98 3.03-4.01 6.02-8.04 8.99-12.1 4.36-5.91 8.89-11.5 13.9-16.9 1.99-2.12 1.99-2.12 3.85-5.06 0.99-0.66 1.98-1.32 3-2h-2c-0.104-0.597-0.208-1.19-0.315-1.81-0.795-2.54-1.68-3.48-3.64-5.26-0.613-0.563-1.23-1.13-1.86-1.71-0.66-0.591-1.32-1.18-2-1.79-0.671-0.613-1.34-1.23-2.03-1.86-1.38-1.26-2.76-2.51-4.14-3.76-2.43-2.2-4.85-4.42-7.26-6.63-1.48-1.36-2.97-2.72-4.46-4.08-1.46-1.34-2.89-2.71-4.29-4.11-2.96-0.341-2.96-0.341-4.42 1.33zm-35.6 113 1 2z" fill="#FBFCFE"/>
<path transform="translate(709 163)" d="m0 0c1.79 1.5 3.4 3 4.96 4.73 0.517 0.552 1.03 1.1 1.57 1.67 1.95 3.17 1.83 5.53 1.87 9.23 0.0125 0.672 0.0251 1.34 0.038 2.04 0.026 1.44 0.0459 2.88 0.0602 4.31 0.0387 3.79 0.123 7.57 0.21 11.4 0.0248 1.12 0.0248 1.12 0.0501 2.25 0.135 5.31 0.569 10.5 1.26 15.8 1.14 9.3 1.22 18.6 1.29 28 0.0142 1.77 0.0351 3.55 0.0628 5.32 0.036 2.51 0.0442 5.02 0.0446 7.54 0.0214 1.13 0.0214 1.13 0.0433 2.28-0.0464 5.48-1.47 8.66-4.5 13.2h-2c-0.495 1.49-0.495 1.49-1 3-7.86 2.67-16.2 3.31-24 0-5.32-3.99-8.68-8.47-10-15-0.676-11.2 0.59-22.4 1.44-33.6 1.2-15.6 1.2-15.6 1.81-31.2 0.0259-1.27 0.0517-2.54 0.0784-3.85 0.0325-2.29 0.045-4.58 0.0327-6.87 0.0932-6.94 1.38-12 5.64-17.6 6.08-4.97 13.9-7.16 21-2.73z" fill="#FCFDFF"/>
<path transform="translate(1193,883)" d="m0 0c1.02 0.304 2.04 0.608 3.09 0.922 4.85 1.47 9.68 2.99 14.5 4.64 4.34 1.47 8.74 2.54 13.2 3.62 8.87 2.23 17.6 4.89 26.2 7.82 2.13 0.715 4.25 1.43 6.38 2.14 1.51 0.505 3.01 1.01 4.51 1.52 3.83 1.29 7.65 2.51 11.5 3.59 7.75 2.17 14.2 4.32 19.6 10.7 1.36 2.71 1.17 4.91 1.19 7.94 0.0142 1.06 0.0284 2.12 0.043 3.21-0.23 2.85-0.23 2.85-2.23 5.85h-2c-0.371 0.959-0.371 0.959-0.75 1.94-1.25 2.06-1.25 2.06-2.98 2.68-8.55 1.45-16.2 0.305-24.3-2.61-1.37-0.461-2.75-0.92-4.12-1.38-0.736-0.249-1.47-0.498-2.23-0.754-4.03-1.33-8.09-2.57-12.1-3.82-4.43-1.38-8.84-2.83-13.2-4.34-6.42-2.19-12.8-4.19-19.4-5.77-32.2-7.73-32.2-7.73-38.9-17.8-1.68-3.53-1.98-6.32-1-10.1 2.21-5 4.84-8.81 10-11 4.63-1.63 8.47-0.368 13 1z" fill="#FCFDFF"/>
<path transform="translate(223 883)" d="m0 0c3.95 3.4 6.81 6.33 7.7 11.6 0.166 4.37-0.172 7.62-1.83 11.7-6.35 6.35-15.4 8.73-23.9 11.1-1.03 0.293-2.06 0.586-3.13 0.888-8.06 2.28-16.1 4.48-24.2 6.63-7.43 1.99-14.7 4.37-21.9 7.04-4.07 1.49-8.14 2.94-12.3 4.27-1.53 0.498-3.05 1.03-4.55 1.58-7.33 2.53-15.3 3.66-22.9 1.53-4.88-2.39-7.61-6.59-9.79-11.4-0.906-3.62 0.232-5.81 1.94-9 4.83-7.18 12.3-9.33 20.4-11.3 2.34-0.588 4.58-1.27 6.86-2.05 4.73-1.61 9.49-3.1 14.3-4.58 3.69-1.14 7.37-2.3 11-3.49 9.56-3.08 19.2-5.9 28.9-8.46 9.78-2.56 9.78-2.56 19.1-6.28 4.77-1.55 9.57-1.56 14.2 0.25z" fill="#FCFDFF"/>
<path transform="translate(207 757)" d="m0 0c3.11 2.99 4.71 5.21 5.36 9.53 0.108 9.9 0.108 9.9-3.11 14-12 9.6-45.3 5.16-60.3 5.44-10.8 0.203-21.6 0.508-32.4 1.22-19.1 1.17-19.1 1.17-25.9-4.71-2.22-2.62-3.68-4.72-3.87-8.21 0.663-6.09 1.99-10.1 6.75-14.3 4.89-3.37 9.7-3.95 15.5-4.17 0.787-0.0364 1.57-0.0728 2.38-0.11 8-0.35 16-0.514 24-0.669 13.4-0.267 26.8-0.713 40.1-1.95 23.3-2.12 23.3-2.12 31.4 3.9zm-88.1-0.559v1h6v-1h-6z" fill="#FBFCFE"/>
<path transform="translate(1229 753)" d="m0 0c9.91 0.827 19.8 1.28 29.7 1.6 1.8 0.0587 1.8 0.0587 3.63 0.119 6.11 0.197 12.2 0.377 18.3 0.535 2.3 0.0706 4.6 0.142 6.89 0.213 1.58 0.0329 1.58 0.0329 3.19 0.0664 6.35 0.214 13 0.498 18 5.01 4.04 4.64 4.75 8.45 4.66 14.4-0.428 4.41-2.52 6.59-5.71 9.46-4.13 2.89-7.33 2.89-12.2 2.88-1.19 0.00258-2.38 0.00516-3.61 0.00781-3.79-0.0645-7.56-0.332-11.3-0.609-8.83-0.614-17.6-0.799-26.5-0.969-4.76-0.0929-9.51-0.201-14.3-0.309-0.923-0.0209-1.85-0.0417-2.8-0.0632-7.1-0.163-14.2-0.346-21.3-0.62-0.846-0.0271-1.69-0.0541-2.56-0.082-8.75-0.374-16.6-0.906-22.9-7.48-2.69-3.55-2.51-7.72-2-12 1.56-4.68 3.87-7.32 7.92-9.96 9.96-4.96 22.2-3.1 32.8-2.16z" fill="#FCFDFF"/>
<path transform="translate(131 601)" d="m0 0c1.24 0.0786 2.47 0.157 3.75 0.238 3.25 0.449 3.25 0.449 6.25 2.45 1.9 0.584 1.9 0.584 3.99 0.965 0.78 0.158 1.56 0.317 2.36 0.48 0.831 0.163 1.66 0.325 2.52 0.493 1.74 0.355 3.48 0.71 5.21 1.07 0.847 0.172 1.69 0.343 2.57 0.52 13.5 2.75 26.8 6.54 39.9 11 2.99 1.01 5.96 1.84 9.03 2.55 14.7 3.44 14.7 3.44 19.4 10.1 1.67 2.97 2.13 4.73 2.12 8.14 0.00387 1.16 0.00387 1.16 0.00781 2.34-0.248 4.28-0.588 5.69-3.61 9-4.02 3.11-7.9 3.05-12.8 2.91-0.874-0.0118-1.75-0.0237-2.65-0.0359-10.4-0.357-19.6-3.51-29.2-7.14-9.99-3.77-20.4-6.04-30.8-8.38-30.6-6.99-30.6-6.99-36.1-15.1-1.74-3.47-1.46-7.2-1-11 4.33-8.49 9.77-11.3 19-10.7z" fill="#FCFDFF"/>
<path transform="translate(1281 602)" d="m0 0c3.84 2.91 6.42 4.92 7.31 9.75 0.115 1.66 0.175 3.33 0.188 5 0.0142 0.846 0.0284 1.69 0.043 2.56-0.245 2.59-0.925 4.21-2.23 6.44h-2c-0.495 1.49-0.495 1.49-1 3-6.29 3.56-13.6 5.03-20.6 6.5-1.94 0.426-3.89 0.853-5.83 1.28-0.944 0.206-1.89 0.413-2.86 0.625-9.33 2.07-18.6 4.5-27.7 7.16-0.691 0.198-1.38 0.396-2.09 0.6-4.44 1.31-8.6 2.99-12.8 4.84-9.29 3.3-20.2 4.84-30 3-4.65-2.35-7.35-5.06-9-10-0.251-4.51-0.289-8.05 2-12 7.2-7.38 16.7-9.28 26.4-11.4 4.56-1.03 8.91-2.3 13.3-3.88 9.91-3.44 20.1-5.64 30.3-8.04 6.42-1.52 12.8-3.16 19.2-4.92 11.8-3.11 11.8-3.11 17.4-0.477z" fill="#FCFDFF"/>
<path transform="translate(1135 341)" d="m0 0c5.93 5.85 5.93 5.85 6.2 10.1 0.00645 1.05 0.0129 2.11 0.0195 3.2 0.0142 1.05 0.0284 2.1 0.043 3.18-0.225 2.88-0.741 4.51-2.23 6.95h-2c-0.237 0.572-0.474 1.14-0.719 1.73-4.33 7.65-14.2 14.2-21.3 19.3h-2c-0.309 0.835-0.309 0.835-0.625 1.69-1.95 3.28-4.32 5.02-7.38 7.31h-2c-0.247 0.639-0.495 1.28-0.75 1.94-1.58 2.61-2.42 2.35-5.25 3.06-0.278 0.593-0.557 1.19-0.844 1.8-1.45 2.76-3.18 4.07-5.66 5.95-0.794 0.614-1.59 1.23-2.41 1.86-2.09 1.39-2.09 1.39-4.09 1.39-0.268 0.639-0.536 1.28-0.812 1.94-1.19 2.06-1.19 2.06-4.19 3.06-0.309 0.66-0.619 1.32-0.938 2-0.526 0.99-0.526 0.99-1.06 2-1.33 0.362-2.66 0.697-4 1-0.33 0.99-0.66 1.98-1 3-5.88 1.96-13.8 2.62-19.4-0.199-4.07-3.43-6.36-6.76-6.97-12.1 0.611-6.01 3.14-9.81 7.56-13.7 1.26-1.01 2.53-2.01 3.81-3 0.763-0.59 1.53-1.18 2.31-1.79 1.52-1.17 3.04-2.34 4.57-3.5 2.2-1.78 4.13-3.7 6.11-5.71 1.13-0.992 2.28-1.97 3.44-2.94 2.14-1.81 4.1-3.61 6.06-5.62 2.42-2.36 4.85-4.18 7.66-6.03 2.51-1.91 4.61-4.17 6.84-6.41 1.77-1.5 3.56-2.98 5.38-4.44 7.6-6.06 7.6-6.06 14.7-12.7 5.73-5.55 13.6-10.1 20.9-4.32z" fill="#FBFCFE"/>
<path transform="translate(279,339)" d="m0 0c4.24 2.48 7.74 5.45 11.3 8.81 3.99 3.68 8.04 7.12 12.4 10.4 2.73 2.09 5.41 4.24 8.08 6.41 0.882 0.714 1.76 1.43 2.67 2.16 2.67 2.29 5.11 4.71 7.58 7.21 2.38 2.29 4.78 4.55 7.19 6.81 0.661 0.62 1.32 1.24 2 1.88 3.65 3.4 7.36 6.63 11.3 9.68 11 8.78 11 8.78 12.1 15.1 0.3 9.27 0.3 9.27-2.48 13.4-3.46 3.55-5.9 3.35-10.8 3.45-1.2 0.0374-2.4 0.0748-3.64 0.113-7.52-0.871-12.2-5.55-17.4-10.6-4.14-3.94-8.28-7.75-12.8-11.3-4.3-3.44-8.32-7.09-12.3-10.9-7.6-7.18-15.7-13.5-24.1-19.8-0.692-0.599-1.38-1.2-2.1-1.82v-2h-2c-3.97-3.8-7.45-7.92-7.75-13.6 0.435-4.96 2.47-8.74 5.75-12.4 4.47-3.25 9.6-4.14 15-3z" fill="#FBFCFE"/>
<path transform="translate(406,242)" d="m0 0c6.8 3.1 10.3 10.9 13.8 17 2.25 3.83 4.6 7.6 6.93 11.4 9.25 15.1 9.25 15.1 9.25 17.6l2 1c1.34 2.31 2.59 4.62 3.81 7 0.72 1.37 1.44 2.75 2.16 4.12 0.348 0.668 0.696 1.34 1.06 2.02 2.52 4.81 5.09 9.53 8.1 14 4.63 6.94 6.1 12.5 4.88 20.8-1.64 3.52-4.01 5.43-7.38 7.38-5.99 1.43-10.2 0.714-15.6-1.91-5.42-3.98-8.65-9.92-11.9-15.6-0.436-0.75-0.872-1.5-1.32-2.27-2.88-4.98-5.66-10-8.38-15.1-1.86-3.38-3.87-6.67-5.88-9.97-1.47-2.49-2.82-5.01-4.17-7.57-3.12-5.82-6.73-11.3-10.4-16.7-4.38-6.58-7.78-13-6.87-21.2 3.71-9.75 9.96-13.5 20-12z" fill="#FBFCFE"/>
<path transform="translate(1e3 242)" d="m0 0c4.6 2.89 7.19 5.88 9 11 1.12 8.9-2.66 15.5-7 23-0.587 1.02-1.17 2.05-1.78 3.11-4.8 8.34-4.8 8.34-6.77 10.9-1.63 2.18-2.87 4.42-4.14 6.82-2.68 5-5.49 9.92-8.34 14.8-2.81 4.9-5.28 9.93-7.65 15.1-1.32 2.23-1.32 2.23-4.32 3.23-0.289 0.866-0.577 1.73-0.875 2.62-1.73 5.18-3.98 9.28-8.94 11.8-6.89 1.22-12.1 1.21-18.2-2.44-3.25-3.62-4.77-7.77-4.52-12.7 1.38-6.09 4.64-12 8.55-16.8 2.11-2.67 3.42-5.23 4.85-8.31 3.38-7.03 7.25-13.8 11.2-20.5 0.59-1.01 1.18-2.03 1.79-3.07 3.14-5.35 6.38-10.6 9.9-15.7 1.22-1.89 2.19-3.77 3.13-5.81 2.84-5.89 6.69-13.3 12.6-16.4 3.94-1.1 7.47-1.4 11.5-0.707z" fill="#FBFCFE"/>
<path transform="translate(1220 461)" d="m0 0c3.57 2.46 5.53 4.84 6.81 8.94 0.717 5.46 0.958 10-1.5 15.1-3.23 3.8-6.68 5.68-11.1 7.94-0.809 0.434-1.62 0.867-2.45 1.31-2.32 1.24-4.65 2.47-6.99 3.69-6.63 3.51-13 7.23-19.3 11.3-5.66 3.69-11.4 7.2-17.2 10.7-5.2 3.16-10.3 6.4-15.4 9.73-5.27 3.17-11.1 2.68-17.1 2.24-3.65-1.22-5.32-2.25-7.88-5.06-1.67-4.36-1.78-8.33-1.12-12.9 3.75-7.8 11.1-12.2 18.3-16.4 2.7-1.58 5.34-3.24 7.97-4.93 5.13-3.28 10.3-6.48 15.5-9.66 2.9-1.79 5.76-3.62 8.62-5.47 8.87-5.67 18-11 27.6-15.5 0.846-0.413 1.69-0.825 2.56-1.25 4.5-1.38 8.18-1.17 12.6 0.312z" fill="#FBFCFE"/>
<path transform="translate(200 464)" d="m0 0c1.05 0.546 1.05 0.546 2.13 1.1 11.1 5.79 21.7 12.2 32.3 18.9 4.99 3.18 10 6.25 15.1 9.25 18.4 10.9 18.4 10.9 24 19.2 0.695 5.38 1.09 11.1-0.852 16.3-2.39 3.04-4.56 3.65-8.35 4.27-7.96 0.37-13.4-0.897-19.8-5.52-5.3-3.6-10.7-6.96-16.2-10.3-5.46-3.36-10.9-6.72-16.2-10.2-3.52-2.28-7.13-4.3-10.8-6.28-0.97-0.519-1.94-1.04-2.94-1.57-1.94-1.03-3.88-2.05-5.83-3.06-7.12-3.78-15.9-8.63-19-16.5-0.534-4.8-0.542-6.96 1.69-11.2 7.46-8.87 14.7-9.64 24.8-4.25z" fill="#FBFCFE"/>
<path transform="translate(548,183)" d="m0 0c4.44 1.86 6.96 4.72 9 9 1.25 3.52 2.27 7.09 3.31 10.7 1.51 5.05 3.14 10.1 4.76 15.1 0.341 1.07 0.681 2.13 1.03 3.23 1.46 4.56 2.93 9.12 4.46 13.7 1.87 5.59 3.52 11.2 5.19 16.9 0.247 0.833 0.495 1.67 0.75 2.52 0.244 0.823 0.489 1.65 0.74 2.5 0.743 2.39 1.57 4.73 2.42 7.08 1.4 4.17 1.81 7.71 1.84 12.1 0.0309 1.25 0.0619 2.51 0.0938 3.8-0.746 4.34-2.24 5.71-5.59 8.45-4.28 2.86-7.98 2.85-13 2-5.54-2.74-8.9-6.71-12-12-1.16-3.59-1.16-3.59-2.06-7.38-1.11-4.62-2.41-8.98-4.12-13.4-1.65-4.49-2.95-9.09-4.32-13.7-2.94-9.81-6.06-19.5-9.63-29.1-2.57-7.36-3.58-15.9-0.18-23 5.27-5.55 9.44-9.12 17.3-8.44z" fill="#FBFCFE"/>
<path transform="translate(864 185)" d="m0 0c4.07 3.23 6.76 6.88 7.77 12 0.401 12-3.51 22.2-7.57 33.3-1.33 3.66-2.59 7.33-3.82 11-0.385 1.15-0.771 2.3-1.17 3.49-1.3 4.15-2.34 8.34-3.35 12.6-0.782 3.13-1.73 6.15-2.8 9.2-0.697 1.98-1.36 3.98-2 5.98-0.619 1.86-0.619 1.86-1.25 3.76-0.379 1.16-0.758 2.32-1.15 3.52-1.92 4.21-4.57 6.85-8.29 9.55-4.67 1.47-8.78 1.17-13.3-0.375-4.68-3.15-8.36-6.38-9.5-12.1 1.13-7.01 3.51-13.6 5.79-20.3 2.81-8.3 5.3-16.6 7.67-25.1 1.52-5.39 3.22-10.6 5.23-15.9 1.16-3.25 2.07-6.54 3-9.86 4.81-17.2 4.81-17.2 11.1-21.1 4.55-1.01 9.33-1.93 13.6 0.32z" fill="#FBFCFE"/>
<path transform="translate(1154,741)" d="m0 0h1v31h-1v-31z" fill="#000002"/>
<path transform="translate(292,751)" d="m0 0h1v12h-1v-12z" fill="#000002"/>
<path transform="translate(354,406)" d="m0 0h1c1.03 4.53 1.18 5.64-1 10v-10z" fill="#000002"/>
<path transform="translate(1152,791)" d="m0 0h1v9h-1v-9z" fill="#000002"/>
<path transform="translate(460,751)" d="m0 0h1v9h-1v-9z" fill="#000002"/>
<path transform="translate(582,272)" d="m0 0h1v9h-1v-9z" fill="#000002"/>
<path transform="translate(718,176)" d="m0 0h1v9h-1v-9z" fill="#000002"/>
<path transform="translate(274,515)" d="m0 0h1v8h-1v-8z" fill="#000002"/>
<path transform="translate(1134,1309)" d="m0 0h7v1h-7v-1z" fill="#000002"/>
<path transform="translate(1205,1084)" d="m0 0h7v1h-7v-1z" fill="#000002"/>
<path transform="translate(293,731)" d="m0 0h1v7h-1v-7z" fill="#000002"/>
<path transform="translate(1058,425)" d="m0 0h7v1h-7v-1z" fill="#000002"/>
<path transform="translate(336,425)" d="m0 0h7v1h-7v-1z" fill="#000002"/>
<path transform="translate(984,787)" d="m0 0h1v6h-1v-6z" fill="#000002"/>
<path transform="translate(293,775)" d="m0 0h1v6h-1v-6z" fill="#000002"/>
<path transform="translate(294,719)" d="m0 0h1v6h-1v-6z" fill="#000002"/>
<path transform="translate(1139,533)" d="m0 0h6v1h-6v-1z" fill="#000002"/>
<path transform="translate(257,533)" d="m0 0h6v1h-6v-1z" fill="#000002"/>
<path transform="translate(1294,924)" d="m0 0h1v5h-1v-5z" fill="#000002"/>
<path transform="translate(296,808)" d="m0 0h1v5h-1v-5z" fill="#000002"/>
<path transform="translate(294,789)" d="m0 0h1v5h-1v-5z" fill="#000002"/>
<path transform="translate(461,773)" d="m0 0h1v5h-1v-5z" fill="#000002"/>
<path transform="translate(213,767)" d="m0 0h1v5h-1v-5z" fill="#000002"/>
<path transform="translate(296,699)" d="m0 0h1v5h-1v-5z" fill="#000002"/>
<path transform="translate(703,1595)" d="m0 0h2v2h-2v-2z" fill="#000002"/>
<path transform="translate(1151,806)" d="m0 0 1 4z" fill="#000002"/>
<path transform="translate(465,803)" d="m0 0 1 4z" fill="#000002"/>
<path transform="translate(295,800)" d="m0 0 1 4z" fill="#000002"/>
<path transform="translate(461,734)" d="m0 0 1 4z" fill="#000002"/>
<path transform="translate(462,724)" d="m0 0 1 4z" fill="#000002"/>
<path transform="translate(1152,712)" d="m0 0 1 4z" fill="#000002"/>
<path transform="translate(464,710)" d="m0 0 1 4z" fill="#000002"/>
<path transform="translate(295,708)" d="m0 0 1 4z" fill="#000002"/>
<path transform="translate(732,346)" d="m0 0 4 1z" fill="#000002"/>
<path transform="translate(670,346)" d="m0 0 4 1z" fill="#000002"/>
<path transform="translate(719,213)" d="m0 0 1 4z" fill="#000002"/>
<path transform="translate(754,348)" d="m0 0c3 1 3 1 3 1z" fill="#000002"/>
<path transform="translate(741,1036)" d="m0 0 2 1z" fill="#000002"/>
<path transform="translate(157,931)" d="m0 0 2 1z" fill="#000002"/>
<path transform="translate(1227,785)" d="m0 0 2 1z" fill="#000002"/>
<path transform="translate(1186,654)" d="m0 0 2 1z" fill="#000002"/>
<path transform="translate(1205,651)" d="m0 0 2 1z" fill="#000002"/>
<path transform="translate(1230,643)" d="m0 0 2 1z" fill="#000002"/>
<path transform="translate(632,523)" d="m0 0 2 1z" fill="#000002"/>
<path transform="translate(766,521)" d="m0 0 2 1z" fill="#000002"/>
<path transform="translate(744,516)" d="m0 0 2 1z" fill="#000002"/>
<path transform="translate(661,516)" d="m0 0 2 1z" fill="#000002"/>
<path transform="translate(737,515)" d="m0 0 2 1z" fill="#000002"/>
<path transform="translate(668,515)" d="m0 0 2 1z" fill="#000002"/>
<path transform="translate(581,363)" d="m0 0 2 1z" fill="#000002"/>
<path transform="translate(599,358)" d="m0 0 2 1z" fill="#000002"/>
</svg>
